<?xml version="1.0" encoding="UTF-8"?>
<svg version="1.1" xmlns="http://www.w3.org/2000/svg" width="192" height="192">
<path d="M0 0 C2.348062 0.00850923 4.69368039 -0.02035418 7.04150391 -0.05200195 C16.89190187 -0.09751902 25.12819317 1.1475223 34.48291016 4.44604492 C36.23293335 5.04425049 36.23293335 5.04425049 38.01831055 5.65454102 C61.5809164 13.90720182 79.57502088 32.41875605 90.48291016 54.44604492 C96.63236021 67.56371033 99.00810093 79.59443022 98.92895508 93.96313477 C98.92044585 96.31119676 98.94930925 98.65681516 98.98095703 101.00463867 C99.0264741 110.85503664 97.78143278 119.09132794 94.48291016 128.44604492 C93.88470459 130.19606812 93.88470459 130.19606812 93.27441406 131.98144531 C85.02175325 155.54405117 66.51019903 173.53815564 44.48291016 184.44604492 C31.36524475 190.59549497 19.33452486 192.97123569 4.96582031 192.89208984 C2.61775831 192.88358061 0.27213992 192.91244402 -2.07568359 192.9440918 C-11.92608156 192.98960886 -20.16237286 191.74456754 -29.51708984 188.44604492 C-30.68377197 188.04724121 -31.8504541 187.6484375 -33.05249023 187.23754883 C-56.61509609 178.98488802 -74.60920056 160.4733338 -85.51708984 138.44604492 C-91.6665399 125.32837951 -94.04228061 113.29765962 -93.96313477 98.92895508 C-93.95462553 96.58089308 -93.98348894 94.23527469 -94.01513672 91.88745117 C-94.06065378 82.03705321 -92.81561246 73.8007619 -89.51708984 64.44604492 C-89.11828613 63.27936279 -88.71948242 62.11268066 -88.30859375 60.91064453 C-80.05593294 37.34803867 -61.54437872 19.3539342 -39.51708984 8.44604492 C-26.39942443 2.29659487 -14.36870455 -0.07914585 0 0 Z " fill="#FAFCFA" transform="translate(93.51708984375,-0.446044921875)"/>
<path d="M0 0 C3.55687759 2.85401532 7.02403463 5.80353314 10.46191406 8.79931641 C10.10199688 13.84738555 7.41793365 16.32171507 3.89941406 19.61181641 C3.37927734 20.11390625 2.85914063 20.61599609 2.32324219 21.13330078 C1.04502836 22.36460768 -0.2453574 23.58325711 -1.53808594 24.79931641 C-4.36291302 23.50918975 -6.42066714 22.12218506 -8.66308594 19.98681641 C-18.66579168 11.19133377 -29.71451791 10.056374 -42.51611328 10.62890625 C-50.1515252 11.27241235 -56.0271517 15.22918152 -61.49121094 20.37353516 C-68.66106494 28.87063313 -70.73205869 37.75059596 -70.78808594 48.48681641 C-70.80871094 49.45554688 -70.82933594 50.42427734 -70.85058594 51.42236328 C-70.9066132 61.78040317 -67.62275345 70.28169701 -60.56542969 77.93994141 C-51.91629901 86.17720872 -43.9237441 88.38767847 -32.23071289 88.27685547 C-25.83485265 88.03820897 -20.22533933 86.85009472 -14.53808594 83.79931641 C-13.46816406 83.29400391 -12.39824219 82.78869141 -11.29589844 82.26806641 C-8.25482329 79.54574418 -8.10145406 79.0909548 -7.73339844 75.25244141 C-7.67507536 73.51888888 -7.65869843 71.78384421 -7.66308594 70.04931641 C-7.62183594 66.99681641 -7.58058594 63.94431641 -7.53808594 60.79931641 C-17.10808594 60.79931641 -26.67808594 60.79931641 -36.53808594 60.79931641 C-36.53808594 54.52931641 -36.53808594 48.25931641 -36.53808594 41.79931641 C-20.03808594 41.79931641 -3.53808594 41.79931641 13.46191406 41.79931641 C13.67847656 52.96775391 13.67847656 52.96775391 13.89941406 64.36181641 C13.96314209 66.69961182 14.02687012 69.03740723 14.0925293 71.44604492 C14.11298824 73.31507562 14.13082232 75.18413768 14.14550781 77.05322266 C14.19922546 78.48933899 14.19922546 78.48933899 14.25402832 79.95446777 C14.258754 85.16689278 13.82127079 88.05123161 10.0859375 91.84350586 C-6.36263068 106.04988644 -24.73663838 110.02989415 -45.88378906 109.05517578 C-51.36176839 108.52712921 -55.78562888 106.54240127 -60.53808594 103.79931641 C-62.11589844 103.11869141 -62.11589844 103.11869141 -63.72558594 102.42431641 C-76.62345445 94.9722146 -85.23876436 84.65784526 -90.53808594 70.79931641 C-90.94087769 69.82164307 -90.94087769 69.82164307 -91.35180664 68.82421875 C-93.79650755 62.40316215 -94.04110892 56.37350908 -93.97558594 49.54931641 C-93.9672876 48.44048096 -93.95898926 47.33164551 -93.95043945 46.18920898 C-93.78256174 38.05640011 -93.06033824 31.23168809 -89.53808594 23.79931641 C-89.06371094 22.79255859 -88.58933594 21.78580078 -88.10058594 20.74853516 C-80.46636991 6.30591973 -67.85990998 -3.93441736 -52.47558594 -9.20068359 C-35.24678007 -13.09434282 -14.18246984 -11.07133122 0 0 Z " fill="#64B94A" transform="translate(130.5380859375,47.20068359375)"/>
<path d="M0 0 C-3.30542749 2.53709567 -6.73443564 4.85657842 -10.1875 7.1875 C-18.26765895 12.74501746 -25.09363717 18.529421 -30.92578125 26.46875 C-33.03947687 29.04817516 -35.30113237 31.26637875 -37.71801758 33.5546875 C-51.25948877 46.41360548 -59.63035454 63.12191921 -60.33666992 81.94970703 C-60.66491074 100.57789597 -54.49523459 118.01076997 -42 132 C-41.40703125 132.67417969 -40.8140625 133.34835938 -40.203125 134.04296875 C-29.91191297 145.03585433 -14.08907611 154.58681217 1.3215332 155.11352539 C2.55218506 155.10828857 3.78283691 155.10305176 5.05078125 155.09765625 C6.03899117 155.09553383 6.03899117 155.09553383 7.04716492 155.09336853 C9.13565762 155.087805 11.22404011 155.07525947 13.3125 155.0625 C14.73502449 155.05748028 16.15755066 155.0529182 17.58007812 155.04882812 C21.05342077 155.03784757 24.52669961 155.02060835 28 155 C18.77171092 164.59243238 2.61220955 167.93574475 -10.3125 168.5625 C-25.64184387 167.9351053 -42.15605191 156.20401462 -52.45117188 145.48974609 C-62.30936741 134.7445748 -68.54656565 123.96691704 -73 110 C-73.26256592 109.27820557 -73.52513184 108.55641113 -73.7956543 107.81274414 C-76.23712405 100.67262414 -76.50231952 93.94329445 -76.4375 86.4375 C-76.42920166 85.20112793 -76.42090332 83.96475586 -76.41235352 82.69091797 C-75.98034798 59.17813281 -67.46333446 40.73100039 -51.0625 23.6875 C-40.72486925 13.73156638 -28.2846082 6.43167085 -14.625 2.0625 C-13.97128418 1.85093262 -13.31756836 1.63936523 -12.64404297 1.42138672 C-8.33411177 0.13180965 -4.48267796 -0.19112193 0 0 Z " fill="#1B286A" transform="translate(82,12)"/>
<path d="M0 0 C4.94900731 2.99401271 9.56512597 6.28042824 14 10 C14.94875 9.175 15.8975 8.35 16.875 7.5 C19.75 5 19.75 5 22 5 C22.51139597 8.14408784 23.00696036 11.29048573 23.5 14.4375 C23.64308594 15.31599609 23.78617187 16.19449219 23.93359375 17.09960938 C24.81809002 22.80671625 25.14099827 28.22494572 25 34 C22.32269436 33.70793029 19.66600877 33.37580555 17 33 C16.23300781 32.90074219 15.46601563 32.80148438 14.67578125 32.69921875 C9.57478363 31.84183545 6.64861838 30.40492283 3.09375 26.6328125 C2 25 2 25 1.72265625 23.0859375 C0.57106327 19.76187993 -2.23425189 18.3492844 -5.0625 16.5 C-5.65957764 16.10272705 -6.25665527 15.7054541 -6.87182617 15.29614258 C-8.57002621 14.18020887 -10.28456817 13.08925894 -12 12 C-12.68578125 11.56042969 -13.3715625 11.12085937 -14.078125 10.66796875 C-28.88850987 2.29543136 -49.3392997 1.41383144 -65.4375 5.875 C-67.63547007 6.55014439 -69.82444024 7.25580103 -72 8 C-73.68802734 8.56074219 -73.68802734 8.56074219 -75.41015625 9.1328125 C-76.26480469 9.41898438 -77.11945313 9.70515625 -78 10 C-71.91974965 -1.14071188 -58.3426966 -7.69637578 -46.8828125 -12.234375 C-31.67791103 -16.27253311 -12.92294546 -7.43179628 0 0 Z " fill="#7FC741" transform="translate(138,24)"/>
<path d="M0 0 C0 9.24 0 18.48 0 28 C-3.81433013 26.47426795 -5.96552304 25.47253678 -9 23 C-9.49886719 23.4846875 -9.99773437 23.969375 -10.51171875 24.46875 C-16.79302 30.33280144 -23.56352027 34.72879113 -31 39 C-31.67546875 39.4125 -32.3509375 39.825 -33.046875 40.25 C-44.41159867 46.68665765 -59.0945232 48.17506518 -71.875 48.0625 C-73.33679688 48.05573242 -73.33679688 48.05573242 -74.828125 48.04882812 C-77.21881434 48.03710906 -79.6093744 48.02070219 -82 48 C-82 47.34 -82 46.68 -82 46 C-81.27296875 45.84144531 -80.5459375 45.68289062 -79.796875 45.51953125 C-65.38373009 42.17494249 -52.82613096 36.43197563 -41.796875 26.453125 C-39.70870305 24.76442943 -37.5248267 23.5085977 -35.1875 22.1875 C-27.78425675 17.87831738 -21.71342045 12.23249925 -16.375 5.5625 C-11.76421876 0.09263452 -7.01413523 0 0 0 Z " fill="#0F9442" transform="translate(163,136)"/>
<path d="M0 0 C-3.30542749 2.53709567 -6.73443564 4.85657842 -10.1875 7.1875 C-18.26765895 12.74501746 -25.09363717 18.529421 -30.92578125 26.46875 C-33.03947687 29.04817516 -35.30113237 31.26637875 -37.71801758 33.5546875 C-47.66085732 42.99636181 -57.14026624 55.91084376 -58.5 70 C-58.665 70.99 -58.83 71.98 -59 73 C-61.03125 74.1875 -61.03125 74.1875 -63 75 C-63.3612135 61.97624674 -62.73730743 49.27393289 -58 37 C-59.32 38.32 -60.64 39.64 -62 41 C-62.66 40.67 -63.32 40.34 -64 40 C-51.66404169 21.87510035 -35.67220244 8.79467137 -14.625 2.0625 C-13.97128418 1.85093262 -13.31756836 1.63936523 -12.64404297 1.42138672 C-8.33411177 0.13180965 -4.48267796 -0.19112193 0 0 Z " fill="#15B0D8" transform="translate(82,12)"/>
<path d="M0 0 C0.33 0.66 0.66 1.32 1 2 C0.3503125 3.5778125 0.3503125 3.5778125 -0.3125 5.1875 C-4.41551948 15.54809258 -4.3541042 27.96877961 -5 39 C-4.34 39 -3.68 39 -3 39 C-3 37.02 -3 35.04 -3 33 C-2.67 33 -2.34 33 -2 33 C-2 42.24 -2 51.48 -2 61 C-4.02350324 57.96474514 -4.32124018 56.80573798 -4.625 53.3125 C-4.69976562 52.50425781 -4.77453125 51.69601563 -4.8515625 50.86328125 C-4.90054687 50.24839844 -4.94953125 49.63351563 -5 49 C-11.6081228 58.9121842 -9.81137378 75.67891388 -8 87 C-8.99 87.495 -8.99 87.495 -10 88 C-10.77422603 85.87623375 -11.54418063 83.75091024 -12.3125 81.625 C-12.74175781 80.44164062 -13.17101562 79.25828125 -13.61328125 78.0390625 C-14.07622301 76.69294961 -14.53841902 75.3465801 -15 74 C-15.27126709 73.26370361 -15.54253418 72.52740723 -15.82202148 71.76879883 C-18.25202287 64.6512791 -18.50209588 57.91739738 -18.4375 50.4375 C-18.42920166 49.20112793 -18.42090332 47.96475586 -18.41235352 46.69091797 C-18.13940298 31.83502667 -15.5283009 17.51763084 -7 5 C-4.40234375 3.2421875 -4.40234375 3.2421875 -2 2 C-1.34 1.34 -0.68 0.68 0 0 Z " fill="#1C61A7" transform="translate(24,48)"/>
<path d="M0 0 C0 9.24 0 18.48 0 28 C-3.81433013 26.47426795 -5.96552304 25.47253678 -9 23 C-9.74830078 23.72703125 -9.74830078 23.72703125 -10.51171875 24.46875 C-17.02873716 30.55286054 -25.93879055 38.44226181 -35 40 C-33.48941557 36.15487598 -31.26642319 34.44981739 -28 32 C-18.41180164 24.34703434 -8.95243589 13.85730767 -5 2 C-6.65 2 -8.3 2 -10 2 C-10 1.67 -10 1.34 -10 1 C-6.46315341 0.19157792 -3.72159473 0 0 0 Z " fill="#2AA64C" transform="translate(163,136)"/>
<path d="M0 0 C1.32 0.33 2.64 0.66 4 1 C4 1.99 4 2.98 4 4 C1.18183237 6.50137127 -2.10941063 8.34171658 -5.3125 10.3125 C-10.74347327 13.73953126 -15.45247407 17.45247407 -20 22 C-20.66 22 -21.32 22 -22 22 C-23.56266521 23.099763 -23.56266521 23.099763 -25.125 24.5 C-26.548125 25.7375 -26.548125 25.7375 -28 27 C-23.32664963 17.0170215 -14.35547452 11.30874387 -5.62353516 5.14599609 C-3.71707571 3.80029374 -1.82042858 2.46095155 0 1 C0 0.67 0 0.34 0 0 Z " fill="#E1F4F0" transform="translate(80,11)"/>
<path d="M0 0 C1.65 0 3.3 0 5 0 C4.32719771 3.05819222 3.88070059 4.55459819 2 7 C-2.13024287 9.52113278 -6.48821291 11.27475117 -11 13 C-11.89589844 13.34289062 -12.79179688 13.68578125 -13.71484375 14.0390625 C-17.45345573 15.37028208 -19.95499582 16 -24 16 C-24 14.68 -24 13.36 -24 12 C-22.69289063 11.67128906 -22.69289063 11.67128906 -21.359375 11.3359375 C-12.95314163 9.09791433 -5.64481348 6.20044697 2 2 C1.34 1.34 0.68 0.68 0 0 Z " fill="#E3E9E8" transform="translate(107,166)"/>
<path d="M0 0 C0.66 0.33 1.32 0.66 2 1 C1.38511719 1.88751953 1.38511719 1.88751953 0.7578125 2.79296875 C-0.05042969 3.97826172 -0.05042969 3.97826172 -0.875 5.1875 C-1.40867187 5.96480469 -1.94234375 6.74210937 -2.4921875 7.54296875 C-3.98015439 9.9676609 -5.02428078 12.3333499 -6 15 C-6.99 15 -7.98 15 -9 15 C-10.68798827 16.43750191 -10.68798827 16.43750191 -12 18 C-12.66 17.67 -13.32 17.34 -14 17 C-9.70351846 10.87151618 -5.50510597 5.09222302 0 0 Z " fill="#1F90C9" transform="translate(32,35)"/>
<path d="M0 0 C-3.2410371 2.49310546 -6.4850387 4.9059805 -10 7 C-12.99332739 6.0022242 -13.94766315 5.2477975 -16 3 C-10.47239641 0.89424625 -5.93002267 -0.37851209 0 0 Z " fill="#27CEDD" transform="translate(82,12)"/>
<path d="M0 0 C1.65 0 3.3 0 5 0 C2.80992167 6.44856397 2.80992167 6.44856397 -0.9375 9 C-3.95511157 9.98534255 -5.1322511 10.21327838 -8 9 C-5.93814793 5.9072219 -5.09630198 5.31923802 -1.875 3.8125 C-1.15054688 3.46832031 -0.42609375 3.12414062 0.3203125 2.76953125 C1.15175781 2.38861328 1.15175781 2.38861328 2 2 C1.34 1.34 0.68 0.68 0 0 Z " fill="#DDE2E3" transform="translate(107,166)"/>
<path d="M0 0 C-0.33 0.33 -0.66 0.66 -1 1 C2.63 1.33 6.26 1.66 10 2 C10 2.33 10 2.66 10 3 C3.07 3 -3.86 3 -11 3 C-11 2.34 -11 1.68 -11 1 C-9.5437328 0.63743142 -8.08488815 0.28520207 -6.625 -0.0625 C-5.40683594 -0.35833984 -5.40683594 -0.35833984 -4.1640625 -0.66015625 C-2 -1 -2 -1 0 0 Z " fill="#4AA16C" transform="translate(92,181)"/>
<path d="M0 0 C0.66 0.33 1.32 0.66 2 1 C0.76110404 2.48847937 -0.4915672 3.96550105 -1.75 5.4375 C-2.79414062 6.67306641 -2.79414062 6.67306641 -3.859375 7.93359375 C-6.01343015 10.01296451 -7.08310781 10.63867326 -10 11 C-7.58662205 6.17324411 -4.13937592 3.30015998 0 0 Z " fill="#79BF68" transform="translate(70,23)"/>
<path d="M0 0 C1 2 1 2 0.3125 4.375 C-1.09398311 7.18796623 -2.67557877 8.9080209 -5 11 C-5.66 10.67 -6.32 10.34 -7 10 C-3.535 5.05 -3.535 5.05 0 0 Z " fill="#3489C1" transform="translate(25,42)"/>
<path d="M0 0 C-1.93254772 2.0245738 -3.63158688 3.42105792 -6 5 C-6.99 5 -7.98 5 -9 5 C-9 4.01 -9 3.02 -9 2 C-5.5647952 -0.29013653 -4.014669 -0.17842973 0 0 Z " fill="#33336E" transform="translate(110,167)"/>
<path d="M0 0 C0.66 0.66 1.32 1.32 2 2 C2.66 1.67 3.32 1.34 4 1 C4.33 3.64 4.66 6.28 5 9 C4.01 9.495 4.01 9.495 3 10 C0 3.375 0 3.375 0 0 Z " fill="#2B4785" transform="translate(11,126)"/>
<path d="M0 0 C0.99 0.33 1.98 0.66 3 1 C1.625 2.5 1.625 2.5 0 4 C-0.66 4 -1.32 4 -2 4 C-1.34 2.68 -0.68 1.36 0 0 Z " fill="#199D4C" transform="translate(130,172)"/>
<path d="M0 0 C-1.625 1.5625 -1.625 1.5625 -4 3 C-7.25 2.6875 -7.25 2.6875 -10 2 C-6.3558226 -0.4294516 -4.28758728 -0.16179575 0 0 Z " fill="#53D2DD" transform="translate(82,12)"/>
</svg>
